<svg xmlns="http://www.w3.org/2000/svg" width="38" height="38" viewBox="0 0 38 38">
    <g fill="none" fill-rule="evenodd">
        <circle cx="19" cy="19" r="19" fill="#40AA0B" opacity=".1"/>
        <path d="M6.333 6.333h25.334v25.334H6.333z"/>
        <path fill="#40AA0B" fill-rule="nonzero" d="M26.632 22.441l-2.681-.306a2.101 2.101 0 0 0-1.732.602l-1.942 1.942a15.881 15.881 0 0 1-6.956-6.956l1.953-1.953a2.101 2.101 0 0 0 .602-1.731l-.307-2.66a2.113 2.113 0 0 0-2.1-1.868h-1.826c-1.193 0-2.185.992-2.111 2.185.56 9.014 7.769 16.213 16.772 16.772 1.193.074 2.186-.918 2.186-2.11V24.53a2.092 2.092 0 0 0-1.858-2.09z"/>
    </g>
</svg>
